<?xml version="1.0" ?><!DOCTYPE svg  PUBLIC '-//W3C//DTD SVG 1.1//EN'  'http://www.w3.org/Graphics/SVG/1.1/DTD/svg11.dtd'><svg height="1.04167in" style="shape-rendering:geometricPrecision; text-rendering:geometricPrecision; image-rendering:optimizeQuality; fill-rule:evenodd; clip-rule:evenodd" version="1.1" viewBox="0 0 56 56" width="1.04167in" xml:space="preserve" xmlns="http://www.w3.org/2000/svg" xmlns:xlink="http://www.w3.org/1999/xlink"><defs><style type="text/css">
   <![CDATA[
    .fil1 {fill:#FEFEFE}
    .fil0 {fill:#0061FF}
   ]]>
  </style></defs><g id="Layer_x0020_1"><g id="_541902992"><rect class="fil0" height="56.3406" rx="5" ry="5" width="56.3406"/><path class="fil1" d="M40 24l8 -7 -12 -7 -8 7 -8 -7 -12 7 8 7 -8 6 12 8 8 -7 8 7 12 -8 -8 -6zm0 13l-4 2 -8 -6 -8 6 -3 -2 0 3 11 7 12 -7 0 -3zm-12 -20l12 7 -12 7 -12 -7 12 -7z"/></g></g></svg>